<svg width="16" height="18" viewBox="0 0 16 18" fill="none" xmlns="http://www.w3.org/2000/svg">
<path d="M3.41667 0.666656H12.5833C12.7127 0.666656 12.8403 0.696777 12.956 0.754634C13.0717 0.81249 13.1724 0.896493 13.25 0.99999L15.5 3.99999V16.5C15.5 16.721 15.4122 16.933 15.2559 17.0892C15.0996 17.2455 14.8877 17.3333 14.6667 17.3333H1.33333C1.11232 17.3333 0.900358 17.2455 0.744078 17.0892C0.587797 16.933 0.5 16.721 0.5 16.5V3.99999L2.75 0.99999C2.82762 0.896493 2.92828 0.81249 3.04399 0.754634C3.1597 0.696777 3.2873 0.666656 3.41667 0.666656ZM13.4167 3.99999L12.1667 2.33332H3.83333L2.58333 3.99999H13.4167ZM5.5 7.33332H3.83333V8.99999C3.83333 10.1051 4.27232 11.1649 5.05372 11.9463C5.83512 12.7277 6.89493 13.1667 8 13.1667C9.10507 13.1667 10.1649 12.7277 10.9463 11.9463C11.7277 11.1649 12.1667 10.1051 12.1667 8.99999V7.33332H10.5V8.99999C10.5 9.66303 10.2366 10.2989 9.76777 10.7678C9.29893 11.2366 8.66304 11.5 8 11.5C7.33696 11.5 6.70107 11.2366 6.23223 10.7678C5.76339 10.2989 5.5 9.66303 5.5 8.99999V7.33332Z" fill="white"/>
</svg>
