<svg width="20" height="20" viewBox="0 0 20 20" fill="none" xmlns="http://www.w3.org/2000/svg">
<path d="M14.5833 2.74999H18.2499C18.493 2.74999 18.7262 2.84657 18.8981 3.01848C19.07 3.19038 19.1666 3.42354 19.1666 3.66666V18.3333C19.1666 18.5764 19.07 18.8096 18.8981 18.9815C18.7262 19.1534 18.493 19.25 18.2499 19.25H1.74992C1.5068 19.25 1.27365 19.1534 1.10174 18.9815C0.929829 18.8096 0.833252 18.5764 0.833252 18.3333V3.66666C0.833252 3.42354 0.929829 3.19038 1.10174 3.01848C1.27365 2.84657 1.5068 2.74999 1.74992 2.74999H5.41659V0.916656H7.24992V2.74999H12.7499V0.916656H14.5833V2.74999ZM17.3333 10.0833H2.66659V17.4167H17.3333V10.0833ZM12.7499 4.58332H7.24992V6.41666H5.41659V4.58332H2.66659V8.24999H17.3333V4.58332H14.5833V6.41666H12.7499V4.58332ZM4.49992 11.9167H6.33325V13.75H4.49992V11.9167ZM9.08325 11.9167H10.9166V13.75H9.08325V11.9167ZM13.6666 11.9167H15.4999V13.75H13.6666V11.9167Z" fill="black"/>
</svg>
