<svg width="20" height="14" viewBox="0 0 20 14" fill="none" xmlns="http://www.w3.org/2000/svg">
<path d="M7.47083 11C7.37177 11.6952 7.02518 12.3314 6.49473 12.7916C5.96429 13.2518 5.2856 13.5052 4.58333 13.5052C3.88107 13.5052 3.20238 13.2518 2.67193 12.7916C2.14149 12.3314 1.7949 11.6952 1.69583 11H0.833333V1.00001C0.833333 0.778991 0.921131 0.56703 1.07741 0.41075C1.23369 0.254469 1.44565 0.166672 1.66667 0.166672H13.3333C13.5543 0.166672 13.7663 0.254469 13.9226 0.41075C14.0789 0.56703 14.1667 0.778991 14.1667 1.00001V2.66667H16.6667L19.1667 6.04667V11H17.4708C17.3718 11.6952 17.0252 12.3314 16.4947 12.7916C15.9643 13.2518 15.2856 13.5052 14.5833 13.5052C13.8811 13.5052 13.2024 13.2518 12.6719 12.7916C12.1415 12.3314 11.7949 11.6952 11.6958 11H7.47083ZM12.5 1.83334H2.5V8.54167C2.8288 8.206 3.23383 7.95474 3.68063 7.80927C4.12742 7.6638 4.60274 7.62843 5.06615 7.70617C5.52955 7.7839 5.96731 7.97245 6.34217 8.25576C6.71704 8.53907 7.0179 8.90875 7.21917 9.33334H11.9475C12.0875 9.03917 12.275 8.77167 12.5 8.54167V1.83334ZM14.1667 6.83334H17.5V6.59584L15.8267 4.33334H14.1667V6.83334ZM14.5833 11.8333C14.915 11.8333 15.233 11.7016 15.4675 11.4671C15.702 11.2326 15.8337 10.9146 15.8337 10.5829C15.8337 10.2513 15.702 9.93324 15.4675 9.69874C15.233 9.46425 14.915 9.33251 14.5833 9.33251C14.2517 9.33251 13.9337 9.46425 13.6992 9.69874C13.4647 9.93324 13.3329 10.2513 13.3329 10.5829C13.3329 10.9146 13.4647 11.2326 13.6992 11.4671C13.9337 11.7016 14.2517 11.8333 14.5833 11.8333ZM5.83333 10.5833C5.83333 10.4192 5.801 10.2566 5.73818 10.105C5.67536 9.95333 5.58329 9.81553 5.46722 9.69946C5.35114 9.58338 5.21334 9.49131 5.06169 9.42849C4.91003 9.36567 4.74749 9.33334 4.58333 9.33334C4.41918 9.33334 4.25664 9.36567 4.10498 9.42849C3.95332 9.49131 3.81552 9.58338 3.69945 9.69946C3.58338 9.81553 3.4913 9.95333 3.42848 10.105C3.36567 10.2566 3.33333 10.4192 3.33333 10.5833C3.33333 10.9149 3.46503 11.2328 3.69945 11.4672C3.93387 11.7016 4.25181 11.8333 4.58333 11.8333C4.91485 11.8333 5.2328 11.7016 5.46722 11.4672C5.70164 11.2328 5.83333 10.9149 5.83333 10.5833Z" fill="black"/>
</svg>
