<svg width="24" height="28" viewBox="0 0 24 28" fill="none" xmlns="http://www.w3.org/2000/svg">
<path d="M24 0.666672V27.3333H21.3333V16.6667H17.3333V7.33334C17.3333 5.56523 18.0357 3.86954 19.286 2.61929C20.5362 1.36905 22.2319 0.666672 24 0.666672ZM8 16.5333V27.3333H5.33333V16.5333C3.82774 16.2255 2.47466 15.4072 1.50286 14.2167C0.531063 13.0263 0.000188087 11.5367 0 10V2.00001H2.66667V11.3333H5.33333V2.00001H8V11.3333H10.6667V2.00001H13.3333V10C13.3331 11.5367 12.8023 13.0263 11.8305 14.2167C10.8587 15.4072 9.50559 16.2255 8 16.5333Z" fill="#2E3456"/>
</svg>
