<svg width="14" height="19" viewBox="0 0 14 19" fill="none" xmlns="http://www.w3.org/2000/svg">
<path d="M6.16668 13.9483C4.4856 13.7344 2.94906 12.8884 1.86933 11.5823C0.789612 10.2762 0.247743 8.60794 0.353861 6.91664C0.459978 5.22533 1.20612 3.6379 2.44063 2.47697C3.67514 1.31605 5.30538 0.668759 7.00001 0.666658C8.69671 0.665395 10.3301 1.31111 11.5672 2.47222C12.8044 3.63334 13.5523 5.22249 13.6586 6.91586C13.7648 8.60923 13.2214 10.2794 12.1391 11.586C11.0567 12.8927 9.5169 13.7375 7.83334 13.9483V15.6767C11.1217 15.7533 13.6667 16.2792 13.6667 16.9167C13.6667 17.6067 10.6817 18.1667 7.00001 18.1667C3.31834 18.1667 0.333344 17.6067 0.333344 16.9167C0.333344 16.2792 2.87834 15.7533 6.16668 15.6767V13.9483ZM7.00001 8.99999C7.44204 8.99999 7.86596 8.8244 8.17852 8.51184C8.49108 8.19928 8.66668 7.77535 8.66668 7.33332C8.66668 6.8913 8.49108 6.46738 8.17852 6.15481C7.86596 5.84225 7.44204 5.66666 7.00001 5.66666C6.55798 5.66666 6.13406 5.84225 5.8215 6.15481C5.50894 6.46738 5.33334 6.8913 5.33334 7.33332C5.33334 7.77535 5.50894 8.19928 5.8215 8.51184C6.13406 8.8244 6.55798 8.99999 7.00001 8.99999Z" fill="#2E3456"/>
</svg>
