<svg width="18" height="18" viewBox="0 0 18 18" fill="none" xmlns="http://www.w3.org/2000/svg">
<path d="M9.00001 17.3333C4.39751 17.3333 0.666672 13.6025 0.666672 9.00001C0.666672 4.39751 4.39751 0.666672 9.00001 0.666672C13.6025 0.666672 17.3333 4.39751 17.3333 9.00001C17.3333 13.6025 13.6025 17.3333 9.00001 17.3333ZM9.00001 15.6667C10.7681 15.6667 12.4638 14.9643 13.7141 13.7141C14.9643 12.4638 15.6667 10.7681 15.6667 9.00001C15.6667 7.2319 14.9643 5.5362 13.7141 4.28596C12.4638 3.03572 10.7681 2.33334 9.00001 2.33334C7.2319 2.33334 5.5362 3.03572 4.28596 4.28596C3.03572 5.5362 2.33334 7.2319 2.33334 9.00001C2.33334 10.7681 3.03572 12.4638 4.28596 13.7141C5.5362 14.9643 7.2319 15.6667 9.00001 15.6667ZM8.16667 4.83334H9.83334V6.50001H8.16667V4.83334ZM8.16667 8.16667H9.83334V13.1667H8.16667V8.16667Z" fill="black"/>
</svg>
