<svg width="16" height="19" viewBox="0 0 16 19" fill="none" xmlns="http://www.w3.org/2000/svg">
<path d="M3.31834 4.97334C4.64646 3.90923 6.29817 3.33063 8 3.33334C9.77084 3.33334 11.3983 3.94668 12.6817 4.97334L13.8925 3.76251L15.0708 4.94084L13.86 6.15168C14.7414 7.25513 15.2934 8.58503 15.4523 9.98833C15.6113 11.3916 15.3708 12.8113 14.7586 14.084C14.1463 15.3566 13.1872 16.4306 11.9915 17.1822C10.7959 17.9338 9.41228 18.3325 8 18.3325C6.58773 18.3325 5.20415 17.9338 4.0085 17.1822C2.81284 16.4306 1.85369 15.3566 1.24144 14.084C0.629184 12.8113 0.388702 11.3916 0.547667 9.98833C0.706632 8.58503 1.25858 7.25513 2.14 6.15168L0.929171 4.94168L2.1075 3.76334L3.31834 4.97418V4.97334ZM8.83334 10V6.24584L4.66667 11.6667H7.16667V15.4167L11.3333 10H8.83334ZM4.66667 0.833344H11.3333V2.50001H4.66667V0.833344Z" fill="#F26110"/>
</svg>
