<svg width="16" height="16" viewBox="0 0 16 16" fill="none" xmlns="http://www.w3.org/2000/svg">
<path d="M12.5833 15.5C11.8098 15.5 11.0679 15.1927 10.5209 14.6457C9.97396 14.0987 9.66667 13.3569 9.66667 12.5833C9.66667 11.8098 9.97396 11.0679 10.5209 10.5209C11.0679 9.97396 11.8098 9.66667 12.5833 9.66667C13.3569 9.66667 14.0987 9.97396 14.6457 10.5209C15.1927 11.0679 15.5 11.8098 15.5 12.5833C15.5 13.3569 15.1927 14.0987 14.6457 14.6457C14.0987 15.1927 13.3569 15.5 12.5833 15.5ZM3.41667 6.33333C3.03364 6.33333 2.65437 6.25789 2.30051 6.11132C1.94664 5.96474 1.62511 5.7499 1.35427 5.47906C1.08343 5.20822 0.868594 4.88669 0.722018 4.53283C0.575442 4.17896 0.5 3.79969 0.5 3.41667C0.5 3.03364 0.575442 2.65437 0.722018 2.30051C0.868594 1.94664 1.08343 1.62511 1.35427 1.35427C1.62511 1.08343 1.94664 0.868594 2.30051 0.722018C2.65437 0.575442 3.03364 0.5 3.41667 0.5C4.19021 0.5 4.93208 0.807291 5.47906 1.35427C6.02604 1.90125 6.33333 2.64312 6.33333 3.41667C6.33333 4.19021 6.02604 4.93208 5.47906 5.47906C4.93208 6.02604 4.19021 6.33333 3.41667 6.33333ZM13.8925 0.929167L15.0708 2.1075L2.10833 15.0708L0.93 13.8925L13.8917 0.929167H13.8925Z" fill="#D21234"/>
</svg>
