<svg width="16" height="18" viewBox="0 0 16 18" fill="none" xmlns="http://www.w3.org/2000/svg">
<path d="M1.33333 0.666672H14.6667C14.8877 0.666672 15.0996 0.754469 15.2559 0.910749C15.4122 1.06703 15.5 1.27899 15.5 1.50001V17.5633C15.5001 17.6329 15.4827 17.7013 15.4496 17.7624C15.4164 17.8235 15.3685 17.8754 15.3102 17.9132C15.2519 17.9511 15.185 17.9738 15.1157 17.9792C15.0464 17.9846 14.9768 17.9725 14.9133 17.9442L8 14.8583L1.08667 17.9433C1.02325 17.9717 0.95376 17.9837 0.884508 17.9784C0.815257 17.973 0.748444 17.9504 0.690147 17.9126C0.631849 17.8749 0.583917 17.8231 0.550708 17.7621C0.517499 17.7011 0.500068 17.6328 0.5 17.5633V1.50001C0.5 1.27899 0.587797 1.06703 0.744078 0.910749C0.900358 0.754469 1.11232 0.666672 1.33333 0.666672ZM13.8333 15.6375V2.33334H2.16667V15.6375L8 13.0342L13.8333 15.6375ZM8 10.25L5.55083 11.5375L6.01833 8.81084L4.0375 6.87917L6.77583 6.48084L8 4.00001L9.225 6.48084L11.9625 6.87917L9.98167 8.81084L10.4483 11.5375L8 10.25Z" fill="black"/>
</svg>
