<svg width="18" height="18" viewBox="0 0 18 18" fill="none" xmlns="http://www.w3.org/2000/svg">
<path d="M4.14166 14C4.31383 13.5121 4.63311 13.0895 5.05549 12.7907C5.47787 12.4918 5.98256 12.3313 6.49999 12.3313C7.01742 12.3313 7.52211 12.4918 7.94449 12.7907C8.36687 13.0895 8.68616 13.5121 8.85832 14H17.3333V15.6667H8.85832C8.68616 16.1546 8.36687 16.5771 7.94449 16.876C7.52211 17.1749 7.01742 17.3354 6.49999 17.3354C5.98256 17.3354 5.47787 17.1749 5.05549 16.876C4.63311 16.5771 4.31383 16.1546 4.14166 15.6667H0.666656V14H4.14166ZM9.14166 8.16667C9.31383 7.67872 9.63311 7.2562 10.0555 6.95733C10.4779 6.65846 10.9826 6.49796 11.5 6.49796C12.0174 6.49796 12.5221 6.65846 12.9445 6.95733C13.3669 7.2562 13.6862 7.67872 13.8583 8.16667H17.3333V9.83333H13.8583C13.6862 10.3213 13.3669 10.7438 12.9445 11.0427C12.5221 11.3415 12.0174 11.502 11.5 11.502C10.9826 11.502 10.4779 11.3415 10.0555 11.0427C9.63311 10.7438 9.31383 10.3213 9.14166 9.83333H0.666656V8.16667H9.14166ZM4.14166 2.33334C4.31383 1.84539 4.63311 1.42286 5.05549 1.12399C5.47787 0.825124 5.98256 0.664627 6.49999 0.664627C7.01742 0.664627 7.52211 0.825124 7.94449 1.12399C8.36687 1.42286 8.68616 1.84539 8.85832 2.33334H17.3333V4H8.85832C8.68616 4.48795 8.36687 4.91047 7.94449 5.20934C7.52211 5.50821 7.01742 5.66871 6.49999 5.66871C5.98256 5.66871 5.47787 5.50821 5.05549 5.20934C4.63311 4.91047 4.31383 4.48795 4.14166 4H0.666656V2.33334H4.14166Z" fill="black"/>
</svg>
