<svg width="18" height="21" viewBox="0 0 18 21" fill="none" xmlns="http://www.w3.org/2000/svg">
<path d="M1 7.62939e-06H17C17.2652 7.62939e-06 17.5196 0.105364 17.7071 0.292901C17.8946 0.480437 18 0.734791 18 1.00001V20.276C18.0001 20.3594 17.9793 20.4416 17.9395 20.5149C17.8997 20.5882 17.8422 20.6505 17.7722 20.6959C17.7023 20.7413 17.622 20.7685 17.5388 20.775C17.4557 20.7815 17.3722 20.767 17.296 20.733L9 17.03L0.704 20.732C0.627903 20.766 0.544512 20.7805 0.46141 20.774C0.378309 20.7676 0.298133 20.7405 0.228176 20.6952C0.158219 20.6499 0.1007 20.5878 0.0608497 20.5146C0.0209992 20.4414 8.18259e-05 20.3594 0 20.276V1.00001C0 0.734791 0.105357 0.480437 0.292893 0.292901C0.48043 0.105364 0.734784 7.62939e-06 1 7.62939e-06ZM16 17.965V2.00001H2V17.965L9 14.841L16 17.965ZM9 11.5L6.061 13.045L6.622 9.77301L4.245 7.45501L7.531 6.97701L9 4.00001L10.47 6.97701L13.755 7.45501L11.378 9.77301L11.938 13.045L9 11.5Z" fill="#2E3456"/>
</svg>
