<svg width="30" height="28" viewBox="0 0 30 28" fill="none" xmlns="http://www.w3.org/2000/svg">
<path d="M28.3333 24.6667V27.3333H1.66665V24.6667H2.99998V15.656C2.17914 15.1081 1.50626 14.366 1.04107 13.4957C0.575882 12.6253 0.332769 11.6535 0.333314 10.6667C0.333314 9.56399 0.631981 8.50132 1.17731 7.59599L4.79331 1.33332C4.91034 1.13064 5.07865 0.962322 5.28133 0.845298C5.48402 0.728274 5.71394 0.666662 5.94798 0.666656H24.0533C24.2874 0.666662 24.5173 0.728274 24.72 0.845298C24.9226 0.962322 25.091 1.13064 25.208 1.33332L28.8106 7.57599C29.6061 8.89715 29.8617 10.474 29.5245 11.9788C29.1873 13.4837 28.2831 14.8006 27 15.656V24.6667H28.3333ZM6.71865 3.33332L3.47465 8.95066C3.15942 9.72952 3.14996 10.5987 3.44816 11.3842C3.74636 12.1698 4.33022 12.8137 5.08289 13.1872C5.83556 13.5607 6.70151 13.6361 7.50742 13.3984C8.31334 13.1607 8.99976 12.6275 9.42931 11.9053C9.87598 10.7893 11.456 10.7893 11.904 11.9053C12.151 12.5245 12.5781 13.0555 13.13 13.4295C13.6819 13.8035 14.3333 14.0034 15 14.0034C15.6667 14.0034 16.318 13.8035 16.8699 13.4295C17.4218 13.0555 17.8489 12.5245 18.096 11.9053C18.5426 10.7893 20.1226 10.7893 20.5706 11.9053C20.7437 12.3313 21.003 12.7168 21.3322 13.0377C21.6614 13.3586 22.0534 13.6079 22.4836 13.77C22.9138 13.9321 23.3729 14.0035 23.8321 13.9796C24.2912 13.9557 24.7404 13.8371 25.1515 13.6312C25.5625 13.4254 25.9266 13.1367 26.2207 12.7834C26.5148 12.43 26.7327 12.0197 26.8606 11.5781C26.9885 11.1365 27.0237 10.6732 26.9639 10.2174C26.9041 9.76156 26.7507 9.32301 26.5133 8.92932L23.28 3.33332H6.71998H6.71865Z" fill="white"/>
</svg>
