<svg width="18" height="20" viewBox="0 0 18 20" fill="none" xmlns="http://www.w3.org/2000/svg">
<path d="M8.99998 15C12.662 15 15.865 16.575 17.607 18.925L15.765 19.796C14.347 18.116 11.847 17 8.99998 17C6.15298 17 3.65298 18.116 2.23498 19.796L0.393982 18.924C2.13598 16.574 5.33798 15 8.99998 15ZM8.99998 0C10.3261 0 11.5978 0.526784 12.5355 1.46447C13.4732 2.40215 14 3.67392 14 5V8C13.9999 9.28846 13.5024 10.5272 12.6113 11.4578C11.7202 12.3884 10.5042 12.9391 9.21698 12.995L8.99998 13C7.6739 13 6.40213 12.4732 5.46445 11.5355C4.52677 10.5979 3.99998 9.32608 3.99998 8V5C4.00006 3.71154 4.49752 2.47284 5.38864 1.54222C6.27976 0.611607 7.49573 0.0609194 8.78298 0.00500011L8.99998 0ZM8.99998 2C8.23477 1.99996 7.49847 2.29233 6.94172 2.81728C6.38497 3.34224 6.04987 4.06011 6.00498 4.824L5.99998 5V8C5.99923 8.7809 6.303 9.53133 6.84675 10.0918C7.3905 10.6523 8.13138 10.9787 8.91195 11.0016C9.69251 11.0245 10.4513 10.7422 11.027 10.2145C11.6026 9.68691 11.9499 8.9556 11.995 8.176L12 8V5C12 4.20435 11.6839 3.44129 11.1213 2.87868C10.5587 2.31607 9.79563 2 8.99998 2Z" fill="#2E3456"/>
</svg>
